# xmcd
# 
# Track frame offsets:
#	150
#	15988
#	38588
#	53463
#	77915
#	98888
#	120888
#	142650
#	173000
#	190475
#
# Disc length: 2734 seconds
#
# Revision: 1
# Processed by: cddbd v1.5.1PL0 Copyright (c) Steve Scherf et al.
# Submitted via: Audio-CD-Archiv 3.00.486
#
DISCID=680aac0a
DTITLE=Barry Venn's False Pretences - True Lies
DYEAR=1900
DGENRE=blues
TTITLE0=Laid Back Slide
TTITLE1=Ask somebody else
TTITLE2=Fallen Angel
TTITLE3=Satan's Way
TTITLE4=Willie and the hand Jive
TTITLE5=Homeless
TTITLE6=Crossroads
TTITLE7=So many Roads
TTITLE8=Love is the Trouble
TTITLE9=Forty Four
EXTD=
EXTT0=
EXTT1=
EXTT2=
EXTT3=
EXTT4=
EXTT5=
EXTT6=
EXTT7=
EXTT8=
EXTT9=
PLAYORDER=
